<?xml version="1.0" encoding="UTF-8" standalone="no"?><!DOCTYPE svg PUBLIC "-//W3C//DTD SVG 1.1//EN" "http://www.w3.org/Graphics/SVG/1.1/DTD/svg11.dtd"><svg width="100%" height="100%" viewBox="0 0 2084 2093" version="1.1" xmlns="http://www.w3.org/2000/svg" xmlns:xlink="http://www.w3.org/1999/xlink" xml:space="preserve" xmlns:serif="http://www.serif.com/" style="fill-rule:evenodd;clip-rule:evenodd;stroke-linecap:round;stroke-linejoin:round;stroke-miterlimit:1.5;"><path id="landing" d="M0,0l0,2092.5l2083.33,0l0,-2092.5l-2083.33,0Z" style="fill:none;"/><clipPath id="_clip1"><path d="M0,0l0,2092.5l2083.33,0l0,-2092.5l-2083.33,0Z"/></clipPath><g clip-path="url(#_clip1)"><g><g><g><ellipse cx="1041.75" cy="1050.8" rx="1041.75" ry="1041.7" style="fill:#a1fdff;"/><g><path d="M1751.66,378.993l-24.107,234.617l-460.365,-314.024l484.472,79.407Z" style="fill:#c8d6d7;"/><path d="M1751.66,378.993l-5.46,53.144l-35.627,-32.967l-63.474,-37.315l104.561,17.138Z" style="fill:#fff;"/><path d="M1628.38,140.251l16.728,417.126l-411.219,-280.501l394.491,-136.625Z" style="fill:#dbe9ea;"/><path d="M1628.38,140.251l4.5,112.206l-27.212,-34.834l-43.231,9.66l-24.353,-55.76l90.296,-31.272Z" style="fill:#fff;"/><path d="M1618.47,154.654c61.156,41.491 103.948,85.286 95.499,97.738c-8.449,12.452 -64.959,-11.124 -126.115,-52.616c-61.156,-41.491 -103.948,-85.286 -95.499,-97.738c8.449,-12.452 64.959,11.124 126.115,52.616Zm-7.654,11.28c30.578,20.746 51.974,42.643 47.749,48.869c-4.224,6.226 -32.479,-5.562 -63.057,-26.307c-30.578,-20.746 -51.974,-42.644 -47.749,-48.87c4.224,-6.225 32.479,5.563 63.057,26.308Z" style="fill:#fff;"/><path d="M1628.38,140.251l1.925,48.018l-47.338,-32.291l45.413,-15.727Z" style="fill:#fff;"/></g><g><ellipse cx="1041.75" cy="1050.8" rx="815.281" ry="815.24" style="fill:#3bba5c;"/><ellipse cx="1041.75" cy="1050.8" rx="772.371" ry="772.333" style="fill:#2b802e;"/></g><g><g><path d="M1422.65,675.231c123.446,2.311 252.688,179.927 252.688,375.573c0,195.647 -70.378,397.924 -252.688,397.924c-211.045,0 -287.75,-202.28 -286.633,-397.924c1.166,-204.112 72.431,-379.583 286.633,-375.573Z" style="fill:#37c7ee;"/><path d="M1456.66,789.584c140.274,1.176 184.554,153.127 184.554,261.22c0,108.093 -27.026,282.452 -172.878,283.173c-110.293,0.545 -156.696,-175.08 -156.696,-283.173c0,-108.093 43.709,-262.07 145.02,-261.22Z" style="fill:#2b802e;"/></g><g><path d="M513.81,1414.37c-67.768,60.589 -184.773,-517.756 -3.268,-697.116c4.748,-4.692 13.213,-7.329 20.034,-0.638c48.995,48.072 118.056,223.184 143.743,281.744c53.978,123.061 109.247,172.838 134.66,213.043c2.711,-58.609 -6.659,-365.403 18.619,-517.276c10.134,-60.886 148.246,-100.949 155.05,0c11.402,169.161 1.741,580.945 -7.772,746.392c-2.949,51.288 -93.175,52.53 -116.108,43.634c-162.202,-62.918 -358.674,-568.895 -358.674,-568.895c-48.949,3.151 22.576,491.19 13.716,499.112Z" style="fill:#37c7ee;"/><g><path d="M732.173,1050.8c-68.657,0.603 -111.062,26.419 -138.332,110.169l31.27,75.096c21.432,-94.383 69.797,-129.578 146.757,-125.683l-39.695,-59.582Z" style="fill:#7d5e12;"/><path d="M766.718,1097.64c-71.661,-6.267 -129.878,27.968 -151.462,122.765l8.645,19.005c24.181,-99.544 75.76,-132.953 147.967,-129.028l-5.15,-12.742Z" style="fill:#674b06;"/><path d="M731.571,1050.8c-69.05,0.343 -113.912,22.01 -140.214,106.696l5.538,15.327c23.849,-89.32 68.158,-108.874 141.424,-112.381l-6.748,-9.642Z" style="fill:#674b06;"/></g></g></g><g><path d="M1252.49,1939.93l23.824,-5.807l-28.334,-116.225l-23.824,5.807l28.334,116.225Z" style="fill:#8f5828;"/><path d="M1326.29,1925.84c-22.467,5.477 -45.153,-8.316 -50.63,-30.782c-5.477,-22.465 8.317,-45.151 30.783,-50.627c22.467,-5.477 45.154,8.316 50.631,30.782c5.476,22.465 -8.317,45.151 -30.784,50.627Z" style="fill:#7bf977;"/><path d="M1265.3,1940.71c-22.466,5.476 -45.153,-8.317 -50.63,-30.782c-5.477,-22.466 8.317,-45.151 30.784,-50.628c22.467,-5.477 45.153,8.316 50.63,30.782c5.477,22.466 -8.317,45.151 -30.784,50.628Z" style="fill:#7bf977;"/><path d="M1208.1,1954.65c-22.467,5.477 -45.153,-8.316 -50.63,-30.782c-5.477,-22.465 8.317,-45.151 30.783,-50.627c22.467,-5.477 45.154,8.316 50.631,30.782c5.476,22.465 -8.317,45.151 -30.784,50.627Z" style="fill:#7bf977;"/><g><path d="M1326.29,1925.84c-22.467,5.477 -45.153,-8.316 -50.63,-30.782c-5.477,-22.465 8.317,-45.151 30.783,-50.627c22.467,-5.477 45.154,8.316 50.631,30.782c5.476,22.465 -8.317,45.151 -30.784,50.627Z" style="fill:#64ec60;"/><path d="M1265.3,1940.71c-22.466,5.476 -45.153,-8.317 -50.63,-30.782c-5.477,-22.466 8.317,-45.151 30.784,-50.628c22.467,-5.477 45.153,8.316 50.63,30.782c5.477,22.466 -8.317,45.151 -30.784,50.628Z" style="fill:#64ec60;"/><path d="M1208.1,1954.65c-22.467,5.477 -45.153,-8.316 -50.63,-30.782c-5.477,-22.465 8.317,-45.151 30.783,-50.627c22.467,-5.477 45.154,8.316 50.631,30.782c5.476,22.465 -8.317,45.151 -30.784,50.627Z" style="fill:#64ec60;"/></g><path d="M1295.5,1976.47c-22.466,5.477 -45.153,-8.316 -50.63,-30.782c-5.477,-22.466 8.317,-45.151 30.784,-50.628c22.467,-5.476 45.153,8.317 50.63,30.782c5.477,22.466 -8.317,45.152 -30.784,50.628Z" style="fill:#7bf977;"/><path d="M1254.8,1986.39c-22.466,5.477 -45.153,-8.316 -50.63,-30.782c-5.477,-22.466 8.317,-45.151 30.784,-50.628c22.467,-5.476 45.153,8.317 50.63,30.782c5.477,22.466 -8.317,45.151 -30.784,50.628Z" style="fill:#7bf977;"/></g><g><path d="M238.032,608.258l-11.663,21.569l105.236,56.898l11.663,-21.569l-105.236,-56.898Z" style="fill:#8f5828;"/><path d="M199.006,672.454c10.998,-20.341 36.443,-27.926 56.784,-16.928c20.342,10.998 27.927,36.441 16.929,56.782c-10.999,20.341 -36.443,27.926 -56.785,16.927c-20.342,-10.998 -27.927,-36.441 -16.928,-56.781Z" style="fill:#7bf977;"/><path d="M228.862,617.238c10.999,-20.341 36.443,-27.926 56.785,-16.928c20.342,10.999 27.927,36.442 16.928,56.782c-10.998,20.341 -36.443,27.926 -56.784,16.928c-20.342,-10.999 -27.927,-36.442 -16.929,-56.782Z" style="fill:#7bf977;"/><path d="M256.867,565.446c10.999,-20.341 36.443,-27.926 56.785,-16.927c20.342,10.998 27.927,36.441 16.928,56.781c-10.998,20.341 -36.443,27.926 -56.784,16.928c-20.342,-10.998 -27.927,-36.441 -16.929,-56.782Z" style="fill:#7bf977;"/><g><path d="M199.006,672.454c10.998,-20.341 36.443,-27.926 56.784,-16.928c20.342,10.998 27.927,36.441 16.929,56.782c-10.999,20.341 -36.443,27.926 -56.785,16.927c-20.342,-10.998 -27.927,-36.441 -16.928,-56.781Z" style="fill:#64ec60;"/><path d="M228.862,617.238c10.999,-20.341 36.443,-27.926 56.785,-16.928c20.342,10.999 27.927,36.442 16.928,56.782c-10.998,20.341 -36.443,27.926 -56.784,16.928c-20.342,-10.999 -27.927,-36.442 -16.929,-56.782Z" style="fill:#64ec60;"/><path d="M256.867,565.446c10.999,-20.341 36.443,-27.926 56.785,-16.927c20.342,10.998 27.927,36.441 16.928,56.781c-10.998,20.341 -36.443,27.926 -56.784,16.928c-20.342,-10.998 -27.927,-36.441 -16.929,-56.782Z" style="fill:#64ec60;"/></g><path d="M182.078,615.672c10.998,-20.341 36.443,-27.926 56.784,-16.928c20.342,10.999 27.927,36.442 16.928,56.782c-10.998,20.341 -36.443,27.926 -56.784,16.928c-20.342,-10.998 -27.927,-36.442 -16.928,-56.782Z" style="fill:#7bf977;"/><path d="M202.006,578.817c10.998,-20.34 36.443,-27.925 56.784,-16.927c20.342,10.998 27.927,36.441 16.929,56.782c-10.999,20.34 -36.443,27.925 -56.785,16.927c-20.342,-10.998 -27.927,-36.441 -16.928,-56.782Z" style="fill:#7bf977;"/></g></g><g><ellipse cx="1041.75" cy="1050.8" rx="715.816" ry="707.995" style="fill:#2b802e;"/><g><path d="M613.593,804.534l242.461,366.858l0,-370.255c0,-24.061 5.166,-42.107 15.498,-54.137c10.333,-12.031 24.275,-18.046 41.826,-18.046c18.117,0 32.413,6.015 42.887,18.046c10.474,12.03 15.711,30.076 15.711,54.137l0,489.569c0,54.632 -22.646,81.948 -67.94,81.948c-11.323,0 -21.514,-1.627 -30.573,-4.883c-9.058,-3.255 -17.551,-8.421 -25.477,-15.498c-7.927,-7.077 -15.287,-15.356 -22.081,-24.839c-6.794,-9.483 -13.588,-19.178 -20.382,-29.086l-236.516,-362.612l0,364.736c0,23.777 -5.52,41.752 -16.56,53.924c-11.041,12.172 -25.195,18.258 -42.463,18.258c-17.834,0 -32.13,-6.157 -42.887,-18.47c-10.757,-12.314 -16.136,-30.218 -16.136,-53.712l0,-480.228c0,-20.381 2.265,-36.374 6.794,-47.98c5.379,-12.738 14.296,-23.141 26.752,-31.209c12.455,-8.067 25.902,-12.101 40.339,-12.101c11.323,0 21.019,1.84 29.087,5.52c8.068,3.68 15.145,8.634 21.231,14.861c6.086,6.228 12.314,14.295 18.684,24.203c6.369,9.907 12.951,20.239 19.745,30.996Z" style="fill:#37c7ee;fill-rule:nonzero;"/><path d="M1383.86,728.954c64.543,0 119.957,13.092 166.241,39.276c46.284,26.184 81.315,63.408 105.094,111.671c23.779,48.263 35.669,104.948 35.669,170.054c0,48.122 -6.511,91.856 -19.533,131.203c-13.022,39.346 -32.554,73.456 -58.598,102.329c-26.044,28.873 -58.032,50.953 -95.965,66.239c-37.934,15.285 -81.387,22.928 -130.36,22.928c-48.691,0 -92.286,-7.855 -130.785,-23.565c-38.499,-15.711 -70.629,-37.861 -96.39,-66.451c-25.761,-28.59 -45.223,-62.983 -58.386,-103.179c-13.163,-40.196 -19.745,-83.647 -19.745,-130.353c0,-47.839 6.865,-91.715 20.594,-131.628c13.73,-39.912 33.617,-73.881 59.66,-101.905c26.044,-28.023 57.749,-49.466 95.116,-64.327c37.367,-14.861 79.83,-22.292 127.388,-22.292Zm179.192,320.152c0,-45.574 -7.36,-85.063 -22.081,-118.465c-14.72,-33.402 -35.739,-58.666 -63.057,-75.792c-27.317,-17.125 -58.669,-25.688 -94.054,-25.688c-25.195,0 -48.478,4.741 -69.851,14.224c-21.373,9.483 -39.773,23.282 -55.201,41.399c-15.428,18.116 -27.601,41.257 -36.518,69.423c-8.917,28.165 -13.376,59.798 -13.376,94.899c0,35.383 4.459,67.37 13.376,95.96c8.917,28.59 21.514,52.297 37.792,71.122c16.277,18.824 34.96,32.906 56.05,42.248c21.09,9.341 44.232,14.012 69.426,14.012c32.272,0 61.925,-8.068 88.959,-24.203c27.035,-16.135 48.549,-41.045 64.543,-74.73c15.995,-33.685 23.992,-75.155 23.992,-124.409Z" style="fill:#37c7ee;fill-rule:nonzero;"/><g><path d="M787.794,1004.7c-68.657,0.602 -111.062,26.419 -138.332,110.169l31.27,75.096c21.432,-94.384 69.798,-129.579 146.758,-125.683l-39.696,-59.582Z" style="fill:#7d5e12;"/><path d="M822.34,1051.54c-71.661,-6.267 -129.879,27.968 -151.463,122.765l8.646,19.005c24.181,-99.545 75.76,-132.953 147.967,-129.028l-5.15,-12.742Z" style="fill:#674b06;"/><path d="M787.192,1004.7c-69.049,0.342 -113.912,22.01 -140.214,106.696l5.539,15.326c23.849,-89.32 68.158,-108.874 141.424,-112.38l-6.749,-9.642Z" style="fill:#674b06;"/></g></g></g></g><g id="Naomi-Side" serif:id="Naomi Side"><g><g><g><path d="M1161.59,167.593c0,0 17.846,80.083 15.296,96.1c-2.422,15.22 -28.17,15.22 -30.593,0c-2.549,-16.017 15.297,-96.1 15.297,-96.1Z" style="fill:#fff;"/><path d="M1155.74,261.831c7.964,3.193 21.394,-2.629 21.394,2.857c0,5.486 -6.966,9.939 -15.546,9.939c-8.58,0 -15.546,-4.453 -15.546,-9.939c0,-5.486 2.189,-5.868 9.698,-2.857Z"/></g><g><path d="M1130.5,154.681c0,0 17.846,80.083 15.297,96.099c-2.423,15.221 -28.171,15.221 -30.594,0c-2.549,-16.016 15.297,-96.099 15.297,-96.099Z" style="fill:#fff;"/><path d="M1124.65,248.918c7.963,3.193 21.393,-2.629 21.393,2.857c0,5.486 -6.966,9.94 -15.546,9.94c-8.58,0 -15.546,-4.454 -15.546,-9.94c0,-5.486 2.19,-5.868 9.699,-2.857Z"/></g><g><path d="M980.253,167.593c0,0 17.846,80.083 15.297,96.1c-2.423,15.22 -28.171,15.22 -30.594,0c-2.549,-16.017 15.297,-96.1 15.297,-96.1Z" style="fill:#fff;"/><path d="M974.406,261.831c7.963,3.193 21.393,-2.629 21.393,2.857c0,5.486 -6.966,9.939 -15.546,9.939c-8.58,0 -15.546,-4.453 -15.546,-9.939c0,-5.486 2.19,-5.868 9.699,-2.857Z"/></g><g><path d="M949.161,154.681c0,0 17.846,80.083 15.297,96.099c-2.423,15.221 -28.171,15.221 -30.593,0c-2.55,-16.016 15.296,-96.099 15.296,-96.099Z" style="fill:#fff;"/><path d="M943.314,248.918c7.964,3.193 21.393,-2.629 21.393,2.857c0,5.486 -6.966,9.94 -15.546,9.94c-8.58,0 -15.546,-4.454 -15.546,-9.94c0,-5.486 2.19,-5.868 9.699,-2.857Z"/></g></g><path d="M1175.58,89.082c0,0 7.744,63.426 50.398,65.349" style="fill:none;stroke:#000;stroke-width:6.27px;"/><ellipse cx="1054.97" cy="120.846" rx="132.646" ry="86.526" style="fill:#fff;"/><path d="M1018.87,91.931c-3.372,-4.168 -19.462,-6.753 -23.295,0c-4.566,8.042 -7.47,44.085 -4.098,48.253c3.371,4.168 19.764,-15.204 24.329,-23.246c4.146,-7.304 6.436,-20.839 3.064,-25.007Z"/><path d="M1043.97,120.616c-9.101,2.062 -24.006,10.963 -24.977,19.513c-0.971,8.55 12.239,28.651 19.152,31.787c6.913,3.135 16.937,-6.262 22.326,-12.974c5.909,-7.36 15.879,-24.799 13.129,-31.186c-2.75,-6.388 -20.529,-9.203 -29.63,-7.14Z"/><path d="M1059.19,99.059c-4.577,3.669 44.202,0.385 51.915,6.583c7.712,6.198 -13.436,28.221 -5.64,30.605c7.796,2.385 46.899,-7.528 52.416,-16.298c5.516,-8.771 -5.9,-33.484 -19.317,-36.323c-16.448,-3.482 -74.798,11.763 -79.374,15.433Z"/><path d="M973.377,116.71c-8.779,13.538 7.912,-74.725 8.121,-58.009c0.383,30.585 0.159,45.241 -8.121,58.009Z"/></g><g id="Naomi"><path d="M897.469,45.871c-10.238,15.675 -22.967,23.806 -39.949,19.061c8.102,-19.796 21.686,-25.461 39.949,-19.061Z" style="fill:#fff;"/><path d="M967.975,51.061c13.781,12.674 28.12,17.423 43.411,8.644c-12.724,-17.193 -27.284,-19.341 -43.411,-8.644Z"/><path d="M895.922,9.155c-1.827,0.696 -3.163,13.909 -1.515,18.345c2.01,5.41 8.497,11.528 8.497,11.528l12.765,-8.425c0,0 -9.102,-5.578 -11.449,-9.198c-3.701,-5.708 -6.471,-12.946 -8.298,-12.25Z" style="stroke:#000;stroke-width:1.52px;"/><path d="M972.697,9.155c1.827,0.696 3.163,13.909 1.515,18.345c-2.01,5.41 -8.497,11.528 -8.497,11.528l-12.766,-8.425c0,0 9.103,-5.578 11.45,-9.198c3.701,-5.708 6.471,-12.946 8.298,-12.25Z" style="stroke:#000;stroke-width:1.52px;"/><path d="M933.806,21.283c25.553,0 46.096,21.813 46.3,38.044c0.372,29.696 -0.931,48.827 -8.971,61.224c-8.525,13.145 -24.815,18.652 -37.329,18.652c-12.514,0 -31.829,-5.365 -37.755,-18.652c-5.623,-12.611 -8.636,-36.369 -9.103,-61.224c-0.304,-16.229 21.304,-38.044 46.858,-38.044Z" style="fill:#fff;"/><path d="M933.806,22.074c9.441,0 11.113,2.428 9.485,6.309c-2.779,6.624 -15.174,17.478 -14.975,27.711c0.325,16.774 -39.941,36.92 -40.81,3.233c-0.419,-16.227 20.746,-37.253 46.3,-37.253Z" style="stroke:#000;stroke-width:1.52px;"/><ellipse cx="933.814" cy="110.321" rx="40.452" ry="28.653" style="fill:#ffddf5;"/><path d="M898.906,58.472c6.424,-7.173 13.301,-9.322 20.238,-1.99" style="fill:none;stroke:#fff;stroke-width:1.52px;"/><path d="M963.954,58.472c-6.423,-7.173 -13.3,-9.322 -20.238,-1.99" style="fill:none;stroke:#000;stroke-width:1.52px;"/><ellipse cx="918.656" cy="94.046" rx="2.998" ry="2.843"/><ellipse cx="945.049" cy="94.046" rx="2.998" ry="2.843"/><path d="M901.467,112.681c10.414,25.364 55.608,24.923 65.251,-1.238" style="fill:none;stroke:#000;stroke-width:1.52px;"/></g></g></g></g></svg>