<?xml version="1.0" encoding="UTF-8" standalone="no"?><!DOCTYPE svg PUBLIC "-//W3C//DTD SVG 1.1//EN" "http://www.w3.org/Graphics/SVG/1.1/DTD/svg11.dtd"><svg width="100%" height="100%" viewBox="0 0 500 503" version="1.1" xmlns="http://www.w3.org/2000/svg" xmlns:xlink="http://www.w3.org/1999/xlink" xml:space="preserve" xmlns:serif="http://www.serif.com/" style="fill-rule:evenodd;clip-rule:evenodd;stroke-linecap:round;stroke-linejoin:round;stroke-miterlimit:1.5;"><path id="landing" d="M0,0l0,502.2l500,0l0,-502.2l-500,0Z" style="fill:none;"/><clipPath id="_clip1"><path d="M0,0l0,502.2l500,0l0,-502.2l-500,0Z"/></clipPath><g clip-path="url(#_clip1)"><g><g><g><ellipse cx="250.019" cy="252.193" rx="250.019" ry="250.007" style="fill:#a1fdff;"/><g><path d="M420.397,90.958l-5.785,56.308l-110.488,-75.365l116.273,19.057Z" style="fill:#c8d6d7;"/><path d="M420.397,90.958l-1.31,12.755l-8.55,-7.912l-15.234,-8.956l25.094,4.113Z" style="fill:#fff;"/><path d="M390.812,33.66l4.015,100.111l-98.693,-67.321l94.678,-32.79Z" style="fill:#dbe9ea;"/><path d="M390.812,33.66l1.08,26.93l-6.531,-8.36l-10.375,2.318l-5.845,-13.383l21.671,-7.505Z" style="fill:#fff;"/><path d="M388.434,37.117c14.677,9.958 24.947,20.469 22.919,23.457c-2.027,2.989 -15.59,-2.67 -30.267,-12.628c-14.678,-9.958 -24.948,-20.468 -22.92,-23.457c2.028,-2.988 15.59,2.67 30.268,12.628Zm-1.837,2.707c7.339,4.979 12.474,10.235 11.46,11.729c-1.014,1.494 -7.795,-1.335 -15.134,-6.314c-7.339,-4.979 -12.474,-10.234 -11.46,-11.729c1.014,-1.494 7.795,1.335 15.134,6.314Z" style="fill:#fff;"/><path d="M390.812,33.66l0.462,11.524l-11.361,-7.749l10.899,-3.775Z" style="fill:#fff;"/></g><g><ellipse cx="250.019" cy="252.193" rx="195.667" ry="195.658" style="fill:#3bba5c;"/><ellipse cx="250.019" cy="252.193" rx="185.369" ry="185.36" style="fill:#2b802e;"/></g><g><g><path d="M341.436,162.055c29.627,0.555 60.645,43.183 60.645,90.138c0,46.955 -16.89,95.502 -60.645,95.502c-50.651,0 -69.06,-48.548 -68.792,-95.502c0.28,-48.987 17.384,-91.1 68.792,-90.138Z" style="fill:#37c7ee;"/><path d="M349.598,189.5c33.666,0.282 44.293,36.751 44.293,62.693c0,25.942 -6.486,67.788 -41.49,67.961c-26.471,0.131 -37.608,-42.019 -37.608,-67.961c0,-25.942 10.491,-62.897 34.805,-62.693Z" style="fill:#2b802e;"/></g><g><path d="M123.314,339.448c-16.264,14.541 -44.345,-124.262 -0.784,-167.308c1.14,-1.126 3.171,-1.759 4.808,-0.153c11.759,11.537 28.334,53.564 34.498,67.618c12.955,29.535 26.22,41.482 32.319,51.131c0.651,-14.066 -1.598,-87.697 4.469,-124.147c2.432,-14.612 35.579,-24.227 37.212,0c2.736,40.599 0.417,139.427 -1.866,179.135c-0.708,12.309 -22.362,12.607 -27.866,10.472c-38.928,-15.101 -86.081,-136.535 -86.081,-136.535c-11.748,0.756 5.418,117.886 3.291,119.787Z" style="fill:#37c7ee;"/><g><path d="M175.722,252.193c-16.478,0.145 -26.655,6.341 -33.2,26.441l7.505,18.023c5.143,-22.652 16.751,-31.099 35.221,-30.164l-9.526,-14.3Z" style="fill:#7d5e12;"/><path d="M184.012,263.435c-17.198,-1.504 -31.17,6.712 -36.351,29.463l2.075,4.561c5.804,-23.89 18.183,-31.908 35.512,-30.966l-1.236,-3.058Z" style="fill:#674b06;"/><path d="M175.577,252.193c-16.572,0.082 -27.339,5.282 -33.651,25.607l1.329,3.678c5.724,-21.436 16.358,-26.129 33.942,-26.971l-1.62,-2.314Z" style="fill:#674b06;"/></g></g></g><g><path d="M300.598,465.583l5.717,-1.394l-6.8,-27.894l-5.718,1.394l6.801,27.894Z" style="fill:#8f5828;"/><path d="M318.309,462.203c-5.392,1.314 -10.837,-1.996 -12.151,-7.388c-1.315,-5.392 1.996,-10.836 7.388,-12.151c5.392,-1.314 10.837,1.996 12.151,7.388c1.315,5.392 -1.996,10.836 -7.388,12.151Z" style="fill:#7bf977;"/><path d="M303.672,465.771c-5.392,1.314 -10.837,-1.996 -12.151,-7.388c-1.315,-5.392 1.996,-10.836 7.388,-12.151c5.392,-1.314 10.837,1.996 12.151,7.388c1.315,5.392 -1.996,10.836 -7.388,12.151Z" style="fill:#7bf977;"/><path d="M289.943,469.117c-5.392,1.315 -10.837,-1.996 -12.151,-7.387c-1.315,-5.392 1.996,-10.837 7.388,-12.151c5.392,-1.314 10.836,1.996 12.151,7.388c1.314,5.391 -1.996,10.836 -7.388,12.15Z" style="fill:#7bf977;"/><g><path d="M318.309,462.203c-5.392,1.314 -10.837,-1.996 -12.151,-7.388c-1.315,-5.392 1.996,-10.836 7.388,-12.151c5.392,-1.314 10.837,1.996 12.151,7.388c1.315,5.392 -1.996,10.836 -7.388,12.151Z" style="fill:#64ec60;"/><path d="M303.672,465.771c-5.392,1.314 -10.837,-1.996 -12.151,-7.388c-1.315,-5.392 1.996,-10.836 7.388,-12.151c5.392,-1.314 10.837,1.996 12.151,7.388c1.315,5.392 -1.996,10.836 -7.388,12.151Z" style="fill:#64ec60;"/><path d="M289.943,469.117c-5.392,1.315 -10.837,-1.996 -12.151,-7.387c-1.315,-5.392 1.996,-10.837 7.388,-12.151c5.392,-1.314 10.836,1.996 12.151,7.388c1.314,5.391 -1.996,10.836 -7.388,12.15Z" style="fill:#64ec60;"/></g><path d="M310.921,474.353c-5.392,1.315 -10.837,-1.996 -12.151,-7.387c-1.315,-5.392 1.996,-10.837 7.388,-12.151c5.392,-1.314 10.837,1.996 12.151,7.388c1.315,5.391 -1.996,10.836 -7.388,12.15Z" style="fill:#7bf977;"/><path d="M301.151,476.735c-5.392,1.314 -10.836,-1.996 -12.151,-7.388c-1.314,-5.392 1.996,-10.836 7.388,-12.151c5.392,-1.314 10.837,1.996 12.151,7.388c1.315,5.392 -1.996,10.836 -7.388,12.151Z" style="fill:#7bf977;"/></g><g><path d="M57.128,145.982l-2.799,5.177l25.256,13.655l2.799,-5.177l-25.256,-13.655Z" style="fill:#8f5828;"/><path d="M47.761,161.389c2.64,-4.882 8.747,-6.702 13.629,-4.063c4.882,2.64 6.702,8.746 4.062,13.628c-2.639,4.882 -8.746,6.702 -13.628,4.063c-4.882,-2.64 -6.702,-8.746 -4.063,-13.628Z" style="fill:#7bf977;"/><path d="M54.927,148.137c2.64,-4.882 8.746,-6.702 13.628,-4.063c4.882,2.64 6.703,8.746 4.063,13.628c-2.64,4.882 -8.746,6.702 -13.628,4.063c-4.882,-2.64 -6.703,-8.746 -4.063,-13.628Z" style="fill:#7bf977;"/><path d="M61.648,135.707c2.64,-4.882 8.747,-6.702 13.629,-4.063c4.881,2.64 6.702,8.746 4.062,13.628c-2.639,4.882 -8.746,6.702 -13.628,4.063c-4.882,-2.64 -6.702,-8.746 -4.063,-13.628Z" style="fill:#7bf977;"/><g><path d="M47.761,161.389c2.64,-4.882 8.747,-6.702 13.629,-4.063c4.882,2.64 6.702,8.746 4.062,13.628c-2.639,4.882 -8.746,6.702 -13.628,4.063c-4.882,-2.64 -6.702,-8.746 -4.063,-13.628Z" style="fill:#64ec60;"/><path d="M54.927,148.137c2.64,-4.882 8.746,-6.702 13.628,-4.063c4.882,2.64 6.703,8.746 4.063,13.628c-2.64,4.882 -8.746,6.702 -13.628,4.063c-4.882,-2.64 -6.703,-8.746 -4.063,-13.628Z" style="fill:#64ec60;"/><path d="M61.648,135.707c2.64,-4.882 8.747,-6.702 13.629,-4.063c4.881,2.64 6.702,8.746 4.062,13.628c-2.639,4.882 -8.746,6.702 -13.628,4.063c-4.882,-2.64 -6.702,-8.746 -4.063,-13.628Z" style="fill:#64ec60;"/></g><path d="M43.699,147.761c2.639,-4.882 8.746,-6.702 13.628,-4.062c4.882,2.639 6.702,8.746 4.063,13.627c-2.64,4.882 -8.747,6.702 -13.629,4.063c-4.882,-2.64 -6.702,-8.746 -4.062,-13.628Z" style="fill:#7bf977;"/><path d="M48.481,138.916c2.64,-4.882 8.747,-6.702 13.629,-4.062c4.882,2.639 6.702,8.745 4.062,13.627c-2.639,4.882 -8.746,6.702 -13.628,4.063c-4.882,-2.64 -6.702,-8.746 -4.063,-13.628Z" style="fill:#7bf977;"/></g></g><g><ellipse cx="250.019" cy="252.193" rx="171.796" ry="169.919" style="fill:#2b802e;"/><g><text x="90.753px" y="326.889px" style="font-family:'ArialRoundedMTBold', 'Arial Rounded MT Bold', sans-serif;font-size:208.701px;fill:#37c7ee;">NO</text><g><path d="M188.306,241.128c-16.477,0.144 -26.655,6.34 -33.199,26.44l7.504,18.023c5.144,-22.652 16.752,-31.098 35.222,-30.164l-9.527,-14.299Z" style="fill:#7d5e12;"/><path d="M196.597,252.369c-17.198,-1.504 -31.171,6.713 -36.351,29.464l2.075,4.561c5.804,-23.891 18.183,-31.909 35.512,-30.967l-1.236,-3.058Z" style="fill:#674b06;"/><path d="M188.162,241.128c-16.572,0.082 -27.339,5.282 -33.652,25.607l1.33,3.678c5.723,-21.437 16.358,-26.13 33.941,-26.971l-1.619,-2.314Z" style="fill:#674b06;"/></g></g></g></g><g id="Naomi-Side" serif:id="Naomi Side"><g><g><g><path d="M278.781,40.222c0,0 4.283,19.22 3.671,23.064c-0.581,3.653 -6.761,3.653 -7.342,0c-0.612,-3.844 3.671,-23.064 3.671,-23.064Z" style="fill:#fff;"/><path d="M277.378,62.839c1.911,0.767 5.134,-0.631 5.134,0.686c0,1.317 -1.672,2.386 -3.731,2.386c-2.059,0 -3.731,-1.069 -3.731,-2.386c0,-1.317 0.526,-1.408 2.328,-0.686Z"/></g><g><path d="M271.319,37.123c0,0 4.283,19.22 3.671,23.064c-0.581,3.653 -6.761,3.653 -7.342,0c-0.612,-3.844 3.671,-23.064 3.671,-23.064Z" style="fill:#fff;"/><path d="M269.916,59.74c1.911,0.767 5.134,-0.631 5.134,0.686c0,1.317 -1.672,2.386 -3.731,2.386c-2.059,0 -3.731,-1.069 -3.731,-2.386c0,-1.317 0.525,-1.408 2.328,-0.686Z"/></g><g><path d="M235.261,40.222c0,0 4.283,19.22 3.671,23.064c-0.582,3.653 -6.761,3.653 -7.342,0c-0.612,-3.844 3.671,-23.064 3.671,-23.064Z" style="fill:#fff;"/><path d="M233.857,62.839c1.912,0.767 5.135,-0.631 5.135,0.686c0,1.317 -1.672,2.386 -3.731,2.386c-2.059,0 -3.731,-1.069 -3.731,-2.386c0,-1.317 0.525,-1.408 2.327,-0.686Z"/></g><g><path d="M227.799,37.123c0,0 4.283,19.22 3.671,23.064c-0.582,3.653 -6.761,3.653 -7.343,0c-0.611,-3.844 3.672,-23.064 3.672,-23.064Z" style="fill:#fff;"/><path d="M226.395,59.74c1.912,0.767 5.135,-0.631 5.135,0.686c0,1.317 -1.672,2.386 -3.731,2.386c-2.06,0 -3.731,-1.069 -3.731,-2.386c0,-1.317 0.525,-1.408 2.327,-0.686Z"/></g></g><path d="M282.138,21.38c0,0 1.859,15.222 12.096,15.683" style="fill:none;stroke:#000;stroke-width:1.51px;"/><ellipse cx="253.192" cy="29.003" rx="31.835" ry="20.766" style="fill:#fff;"/><path d="M244.529,22.063c-0.809,-1 -4.671,-1.62 -5.591,0c-1.096,1.931 -1.793,10.581 -0.983,11.581c0.809,1 4.743,-3.649 5.839,-5.579c0.995,-1.753 1.544,-5.001 0.735,-6.002Z"/><path d="M250.552,28.948c-2.184,0.495 -5.761,2.631 -5.994,4.683c-0.233,2.052 2.938,6.876 4.597,7.629c1.659,0.752 4.065,-1.503 5.358,-3.114c1.418,-1.766 3.811,-5.952 3.151,-7.485c-0.66,-1.533 -4.927,-2.208 -7.112,-1.713Z"/><path d="M254.205,23.774c-1.098,0.881 10.609,0.092 12.46,1.58c1.851,1.488 -3.225,6.773 -1.354,7.345c1.871,0.573 11.256,-1.806 12.58,-3.911c1.324,-2.105 -1.416,-8.036 -4.636,-8.718c-3.947,-0.835 -17.951,2.823 -19.05,3.704Z"/><path d="M233.61,28.01c-2.107,3.25 1.899,-17.934 1.95,-13.922c0.091,7.341 0.038,10.858 -1.95,13.922Z"/></g><g id="Naomi"><path d="M215.393,11.009c-2.458,3.762 -5.513,5.714 -9.588,4.575c1.944,-4.751 5.204,-6.111 9.588,-4.575Z" style="fill:#fff;"/><path d="M232.314,12.255c3.307,3.041 6.749,4.181 10.419,2.074c-3.054,-4.126 -6.549,-4.642 -10.419,-2.074Z"/><path d="M215.021,2.197c-0.438,0.167 -0.759,3.338 -0.363,4.403c0.482,1.298 2.039,2.767 2.039,2.767l3.064,-2.022c0,0 -2.185,-1.339 -2.748,-2.208c-0.888,-1.37 -1.553,-3.107 -1.992,-2.94Z" style="stroke:#000;stroke-width:0.36px;"/><path d="M233.447,2.197c0.439,0.167 0.759,3.338 0.364,4.403c-0.483,1.298 -2.039,2.767 -2.039,2.767l-3.064,-2.022c0,0 2.184,-1.339 2.748,-2.208c0.888,-1.37 1.553,-3.107 1.991,-2.94Z" style="stroke:#000;stroke-width:0.36px;"/><path d="M224.113,5.108c6.133,0 11.064,5.235 11.112,9.13c0.09,7.128 -0.223,11.719 -2.153,14.694c-2.045,3.155 -5.955,4.477 -8.959,4.477c-3.003,0 -7.639,-1.288 -9.061,-4.477c-1.349,-3.026 -2.072,-8.728 -2.184,-14.694c-0.073,-3.895 5.113,-9.13 11.245,-9.13Z" style="fill:#fff;"/><path d="M224.113,5.298c2.266,0 2.668,0.583 2.277,1.514c-0.667,1.59 -3.642,4.195 -3.594,6.651c0.078,4.025 -9.586,8.86 -9.795,0.775c-0.1,-3.894 4.98,-8.94 11.112,-8.94Z" style="stroke:#000;stroke-width:0.36px;"/><ellipse cx="224.115" cy="26.477" rx="9.709" ry="6.877" style="fill:#ffddf5;"/><path d="M215.737,14.033c1.542,-1.721 3.193,-2.237 4.858,-0.477" style="fill:none;stroke:#fff;stroke-width:0.36px;"/><path d="M231.349,14.033c-1.542,-1.721 -3.192,-2.237 -4.857,-0.477" style="fill:none;stroke:#000;stroke-width:0.36px;"/><ellipse cx="220.477" cy="22.571" rx="0.719" ry="0.682"/><ellipse cx="226.812" cy="22.571" rx="0.719" ry="0.682"/><path d="M216.352,27.044c2.499,6.087 13.346,5.981 15.66,-0.298" style="fill:none;stroke:#000;stroke-width:0.36px;"/></g></g></g></g></svg>