<?xml version="1.0" encoding="UTF-8" standalone="no"?>
<!DOCTYPE svg PUBLIC "-//W3C//DTD SVG 1.1//EN" "http://www.w3.org/Graphics/SVG/1.1/DTD/svg11.dtd">
<svg width="100%" height="100%" viewBox="0 0 1500 1507" version="1.1" xmlns="http://www.w3.org/2000/svg" xmlns:xlink="http://www.w3.org/1999/xlink" xml:space="preserve" xmlns:serif="http://www.serif.com/" style="fill-rule:evenodd;clip-rule:evenodd;stroke-linecap:round;stroke-linejoin:round;stroke-miterlimit:1.5;">
    <g transform="matrix(1,0,0,1,1.54222e-28,-8739.95)">
        <g id="landing" transform="matrix(8.20023e-17,-1.3392,0.615764,3.77046e-17,-1.54222e-28,10246.5)">
            <rect x="0" y="0" width="1125" height="2436" style="fill:none;"/>
            <clipPath id="_clip1">
                <rect x="0" y="0" width="1125" height="2436"/>
            </clipPath>
            <g clip-path="url(#_clip1)">
                <g transform="matrix(1.02087,-7.22457e-32,-3.91477e-32,1.82295,754.397,-1778.93)">
                    <g>
                        <g transform="matrix(1.46053e-16,2.90521,-2.38523,1.77893e-16,1576.14,163.58)">
                            <g transform="matrix(1.11209,0,0,1.11209,-58.0307,-86.9003)">
                                <circle cx="510.407" cy="744.097" r="206.817" style="fill:rgb(161,253,255);"/>
                            </g>
                            <g transform="matrix(0.864577,0.589774,-0.491462,0.720456,891.821,-2342.81)">
                                <g transform="matrix(1.44596,0,0,1.14663,-644.474,-468.452)">
                                    <path d="M1415.57,2960.29L1431.96,3006.08L1350.66,3006.08L1415.57,2960.29Z" style="fill:rgb(200,214,215);"/>
                                </g>
                                <g transform="matrix(1.44596,0,0,1.14663,-644.474,-468.452)">
                                    <path d="M1415.57,2960.29L1419.29,2970.66L1412.28,2969.08L1401.56,2970.17L1415.57,2960.29Z" style="fill:white;"/>
                                </g>
                                <g transform="matrix(0.955494,0,0,1.14663,57.8585,-468.452)">
                                    <path d="M1354.98,2932.08L1409.93,3006.08L1300.02,3006.08L1354.98,2932.08Z" style="fill:rgb(219,233,234);"/>
                                </g>
                                <g transform="matrix(0.955494,0,0,1.14663,57.8585,-468.452)">
                                    <path d="M1354.98,2932.08L1369.76,2951.99L1360.46,2949.02L1353.78,2956.16L1342.4,2949.02L1354.98,2932.08Z" style="fill:white;"/>
                                </g>
                                <g transform="matrix(2.32868,-0.00700946,0.00239365,1.14519,72.0586,2305.89)">
                                    <path d="M549.328,520.396C556.023,520.396 561.459,523.097 561.459,526.424C561.459,529.75 556.023,532.451 549.328,532.451C542.633,532.451 537.198,529.75 537.198,526.424C537.198,523.097 542.633,520.396 549.328,520.396ZM549.328,523.41C552.676,523.41 555.394,524.76 555.394,526.424C555.394,528.087 552.676,529.437 549.328,529.437C545.981,529.437 543.263,528.087 543.263,526.424C543.263,524.76 545.981,523.41 549.328,523.41Z" style="fill:white;"/>
                                </g>
                                <g transform="matrix(0.955494,0,0,1.14663,57.8585,-468.452)">
                                    <path d="M1354.98,2932.08L1361.3,2940.6L1348.65,2940.6L1354.98,2932.08Z" style="fill:white;"/>
                                </g>
                            </g>
                            <g transform="matrix(0.947368,0,0,0.947368,26.8205,36.4457)">
                                <g transform="matrix(0.918686,0,0,0.918686,40.686,59.6882)">
                                    <circle cx="510.407" cy="744.097" r="206.817" style="fill:rgb(59,186,92);"/>
                                </g>
                                <g transform="matrix(1.20664,0,0,1.20664,289.921,-126.924)">
                                    <circle cx="182.05" cy="721.179" r="149.174" style="fill:rgb(43,128,46);"/>
                                </g>
                            </g>
                            <g transform="matrix(1,0,0,1,-5.73235,-2.65884)">
                                <g transform="matrix(1,0,0,1,-2.5152,0)">
                                    <g transform="matrix(1,0,0,1,-12.8591,-15.376)">
                                        <path d="M614.794,675.717C642.049,676.227 670.583,715.443 670.583,758.641C670.583,801.838 655.045,846.5 614.794,846.5C568.199,846.5 551.264,801.838 551.51,758.641C551.768,713.574 567.502,674.831 614.794,675.717Z" style="fill:rgb(55,199,238);"/>
                                    </g>
                                    <g transform="matrix(0.574024,0,0,0.552492,258.788,324.122)">
                                        <path d="M610.871,654.249C664.824,654.719 681.855,715.443 681.855,758.641C681.855,801.838 671.46,871.518 615.362,871.806C572.941,872.024 555.093,801.838 555.093,758.641C555.093,715.443 571.905,653.909 610.871,654.249Z" style="fill:rgb(43,128,46);"/>
                                    </g>
                                </g>
                                <g>
                                    <path d="M398.763,823.537C383.801,836.915 357.968,709.22 398.042,669.618C399.09,668.582 400.959,668 402.465,669.477C413.282,680.091 428.529,718.755 434.201,731.685C446.118,758.856 458.321,769.846 463.931,778.723C464.53,765.783 462.461,698.045 468.042,664.512C470.279,651.069 500.772,642.223 502.274,664.512C504.792,701.861 502.659,792.781 500.558,829.311C499.907,840.635 479.987,840.909 474.924,838.945C439.112,825.053 395.735,713.336 395.735,713.336C384.928,714.032 400.719,821.788 398.763,823.537Z" style="fill:rgb(55,199,238);"/>
                                    <g transform="matrix(1.28545,-0.209656,0.209656,1.28545,-274.86,-81.9825)">
                                        <g transform="matrix(0.805424,-0.592699,0.592699,0.805424,-370.078,379.419)">
                                            <path d="M457.837,753.032C449.622,744.786 441.466,742.711 428.087,749.339L422.697,762.032C436.673,753.436 446.672,755.121 455.325,764.906L457.837,753.032Z" style="fill:rgb(125,94,18);"/>
                                        </g>
                                        <g transform="matrix(0.805424,-0.592699,0.592699,0.805424,-370.078,379.419)">
                                            <path d="M456.258,762.771C448.52,753.347 437.469,750.354 423.426,758.981L422.149,762.282C437.075,753.407 447.239,755.694 455.325,764.906L456.258,762.771Z" style="fill:rgb(103,75,6);"/>
                                        </g>
                                        <g transform="matrix(0.805424,-0.592699,0.592699,0.805424,-370.078,379.419)">
                                            <path d="M457.765,752.959C449.536,744.635 441.591,741.77 428.213,748.626L427.013,751.114C440.662,743.412 448.285,746.46 457.397,754.92L457.765,752.959Z" style="fill:rgb(103,75,6);"/>
                                        </g>
                                    </g>
                                </g>
                            </g>
                            <g transform="matrix(-0.971549,0.236838,-0.236838,-0.971549,1167.46,1334.82)">
                                <rect x="494.293" y="531.365" width="5.414" height="26.413" style="fill:rgb(143,88,40);"/>
                                <circle cx="483.141" cy="539.778" r="9.251" style="fill:rgb(123,249,119);"/>
                                <g transform="matrix(1,0,0,1,13.8593,0)">
                                    <circle cx="483.141" cy="539.778" r="9.251" style="fill:rgb(123,249,119);"/>
                                </g>
                                <g transform="matrix(1,0,0,1,26.8592,0)">
                                    <circle cx="483.141" cy="539.778" r="9.251" style="fill:rgb(123,249,119);"/>
                                </g>
                                <g>
                                    <circle cx="483.141" cy="539.778" r="9.251" style="fill:rgb(100,236,96);"/>
                                    <g transform="matrix(1,0,0,1,13.8593,0)">
                                        <circle cx="483.141" cy="539.778" r="9.251" style="fill:rgb(100,236,96);"/>
                                    </g>
                                    <g transform="matrix(1,0,0,1,26.8592,0)">
                                        <circle cx="483.141" cy="539.778" r="9.251" style="fill:rgb(100,236,96);"/>
                                    </g>
                                </g>
                                <g transform="matrix(1,0,0,1,9.25059,-9.25059)">
                                    <circle cx="483.141" cy="539.778" r="9.251" style="fill:rgb(123,249,119);"/>
                                </g>
                                <g transform="matrix(1,0,0,1,18.5012,-9.25059)">
                                    <circle cx="483.141" cy="539.778" r="9.251" style="fill:rgb(123,249,119);"/>
                                </g>
                            </g>
                            <g transform="matrix(0.475624,-0.879649,0.879649,0.475624,-372.943,829.731)">
                                <rect x="494.293" y="531.365" width="5.414" height="26.413" style="fill:rgb(143,88,40);"/>
                                <circle cx="483.141" cy="539.778" r="9.251" style="fill:rgb(123,249,119);"/>
                                <g transform="matrix(1,0,0,1,13.8593,0)">
                                    <circle cx="483.141" cy="539.778" r="9.251" style="fill:rgb(123,249,119);"/>
                                </g>
                                <g transform="matrix(1,0,0,1,26.8592,0)">
                                    <circle cx="483.141" cy="539.778" r="9.251" style="fill:rgb(123,249,119);"/>
                                </g>
                                <g>
                                    <circle cx="483.141" cy="539.778" r="9.251" style="fill:rgb(100,236,96);"/>
                                    <g transform="matrix(1,0,0,1,13.8593,0)">
                                        <circle cx="483.141" cy="539.778" r="9.251" style="fill:rgb(100,236,96);"/>
                                    </g>
                                    <g transform="matrix(1,0,0,1,26.8592,0)">
                                        <circle cx="483.141" cy="539.778" r="9.251" style="fill:rgb(100,236,96);"/>
                                    </g>
                                </g>
                                <g transform="matrix(1,0,0,1,9.25059,-9.25059)">
                                    <circle cx="483.141" cy="539.778" r="9.251" style="fill:rgb(123,249,119);"/>
                                </g>
                                <g transform="matrix(1,0,0,1,18.5012,-9.25059)">
                                    <circle cx="483.141" cy="539.778" r="9.251" style="fill:rgb(123,249,119);"/>
                                </g>
                            </g>
                        </g>
                        <g transform="matrix(1.09566e-16,2.17943,-1.75588,1.30956e-16,4493.15,-794.166)">
                            <g transform="matrix(3.80201,0,0,3.87447,-1906.13,-4353.32)">
                                <ellipse cx="795.597" cy="1812.03" rx="55.41" ry="54.807" style="fill:rgb(43,128,46);"/>
                            </g>
                            <g transform="matrix(2.66603,0,0,2.71684,-1027.23,-2164.23)">
                                <text x="731.676px" y="1815.72px" style="font-family:'ArialRoundedMTBold', 'Arial Rounded MT Bold', sans-serif;font-size:96px;fill:rgb(55,199,238);">NO</text>
                            </g>
                            <g transform="matrix(1.71352,-0.284801,0.279474,1.74618,80.8476,1540.57)">
                                <g transform="matrix(0.805424,-0.592699,0.592699,0.805424,-370.078,379.419)">
                                    <path d="M457.837,753.032C449.622,744.786 441.466,742.711 428.087,749.339L422.697,762.032C436.673,753.436 446.672,755.121 455.325,764.906L457.837,753.032Z" style="fill:rgb(125,94,18);"/>
                                </g>
                                <g transform="matrix(0.805424,-0.592699,0.592699,0.805424,-370.078,379.419)">
                                    <path d="M456.258,762.771C448.52,753.347 437.469,750.354 423.426,758.981L422.149,762.282C437.075,753.407 447.239,755.694 455.325,764.906L456.258,762.771Z" style="fill:rgb(103,75,6);"/>
                                </g>
                                <g transform="matrix(0.805424,-0.592699,0.592699,0.805424,-370.078,379.419)">
                                    <path d="M457.765,752.959C449.536,744.635 441.591,741.77 428.213,748.626L427.013,751.114C440.662,743.412 448.285,746.46 457.397,754.92L457.765,752.959Z" style="fill:rgb(103,75,6);"/>
                                </g>
                            </g>
                        </g>
                    </g>
                    <g id="Naomi-Side" serif:id="Naomi Side" transform="matrix(1.50264e-17,0.298897,-0.2454,1.83022e-17,622.084,32.8862)">
                        <g transform="matrix(2.73638,0,0,1.20509,-1948.48,0)">
                            <g transform="matrix(1,0,0,1,-635.493,543.041)">
                                <g transform="matrix(1,0,0,1,166.62,23.8356)">
                                    <g transform="matrix(0.182723,0,0,0.637533,1271.51,-436.617)">
                                        <path d="M10799.3,1637.86C10799.3,1637.86 10875.9,1861.55 10865,1906.29C10854.6,1948.81 10744.1,1948.81 10733.7,1906.29C10722.7,1861.55 10799.3,1637.86 10799.3,1637.86Z" style="fill:white;"/>
                                    </g>
                                    <g transform="matrix(0.182723,0,0,0.433325,1907.89,-622.736)">
                                        <path d="M7291.5,3226.51C7325.68,3239.63 7383.32,3215.7 7383.32,3238.25C7383.32,3260.8 7353.43,3279.1 7316.6,3279.1C7279.78,3279.1 7249.88,3260.8 7249.88,3238.25C7249.88,3215.7 7259.28,3214.14 7291.5,3226.51Z"/>
                                    </g>
                                </g>
                                <g transform="matrix(1,0,0,1,142.237,0.840108)">
                                    <g transform="matrix(0.182723,0,0,0.637533,1271.51,-436.617)">
                                        <path d="M10799.3,1637.86C10799.3,1637.86 10875.9,1861.55 10865,1906.29C10854.6,1948.81 10744.1,1948.81 10733.7,1906.29C10722.7,1861.55 10799.3,1637.86 10799.3,1637.86Z" style="fill:white;"/>
                                    </g>
                                    <g transform="matrix(0.182723,0,0,0.433325,1907.89,-622.736)">
                                        <path d="M7291.5,3226.51C7325.68,3239.63 7383.32,3215.7 7383.32,3238.25C7383.32,3260.8 7353.43,3279.1 7316.6,3279.1C7279.78,3279.1 7249.88,3260.8 7249.88,3238.25C7249.88,3215.7 7259.28,3214.14 7291.5,3226.51Z"/>
                                    </g>
                                </g>
                                <g transform="matrix(1,0,0,1,24.4117,23.8356)">
                                    <g transform="matrix(0.182723,0,0,0.637533,1271.51,-436.617)">
                                        <path d="M10799.3,1637.86C10799.3,1637.86 10875.9,1861.55 10865,1906.29C10854.6,1948.81 10744.1,1948.81 10733.7,1906.29C10722.7,1861.55 10799.3,1637.86 10799.3,1637.86Z" style="fill:white;"/>
                                    </g>
                                    <g transform="matrix(0.182723,0,0,0.433325,1907.89,-622.736)">
                                        <path d="M7291.5,3226.51C7325.68,3239.63 7383.32,3215.7 7383.32,3238.25C7383.32,3260.8 7353.43,3279.1 7316.6,3279.1C7279.78,3279.1 7249.88,3260.8 7249.88,3238.25C7249.88,3215.7 7259.28,3214.14 7291.5,3226.51Z"/>
                                    </g>
                                </g>
                                <g transform="matrix(1,0,0,1,0.028519,0.840108)">
                                    <g transform="matrix(0.182723,0,0,0.637533,1271.51,-436.617)">
                                        <path d="M10799.3,1637.86C10799.3,1637.86 10875.9,1861.55 10865,1906.29C10854.6,1948.81 10744.1,1948.81 10733.7,1906.29C10722.7,1861.55 10799.3,1637.86 10799.3,1637.86Z" style="fill:white;"/>
                                    </g>
                                    <g transform="matrix(0.182723,0,0,0.433325,1907.89,-622.736)">
                                        <path d="M7291.5,3226.51C7325.68,3239.63 7383.32,3215.7 7383.32,3238.25C7383.32,3260.8 7353.43,3279.1 7316.6,3279.1C7279.78,3279.1 7249.88,3260.8 7249.88,3238.25C7249.88,3215.7 7259.28,3214.14 7291.5,3226.51Z"/>
                                    </g>
                                </g>
                            </g>
                            <g transform="matrix(0.16835,0,0,0.414905,1677.35,537.545)">
                                <path d="M6590.76,1198.07C6590.76,1198.07 6626.83,1470.3 6825.53,1478.56" style="fill:none;stroke:black;stroke-width:28px;"/>
                            </g>
                            <g transform="matrix(0.173878,0,0,0.414905,1256.89,-137.128)">
                                <ellipse cx="8255.32" cy="2960.49" rx="598.265" ry="371.381" style="fill:white;"/>
                            </g>
                            <g transform="matrix(0.182723,0,0,0.414905,1276.68,574.215)">
                                <path d="M7592.48,1121.92C7578.01,1104.03 7508.95,1092.93 7492.5,1121.92C7472.9,1156.43 7460.44,1311.14 7474.91,1329.03C7489.38,1346.91 7559.73,1263.77 7579.33,1229.25C7597.12,1197.9 7606.95,1139.81 7592.48,1121.92Z"/>
                            </g>
                            <g transform="matrix(0.182723,0,0,0.414905,1260.33,602.241)">
                                <path d="M7789.68,1177.49C7750.62,1186.34 7686.65,1224.54 7682.48,1261.24C7678.32,1297.94 7735.01,1384.22 7764.68,1397.67C7794.35,1411.13 7837.37,1370.8 7860.5,1341.99C7885.86,1310.4 7928.65,1235.55 7916.85,1208.13C7905.05,1180.71 7828.74,1168.63 7789.68,1177.49Z"/>
                            </g>
                            <g transform="matrix(0.182723,0,0,0.414905,1270.15,567.845)">
                                <path d="M7801.25,1167.86C7781.61,1183.61 7990.96,1169.51 8024.06,1196.12C8057.16,1222.72 7966.4,1317.25 7999.86,1327.48C8033.32,1337.71 8201.15,1295.17 8224.82,1257.53C8248.5,1219.88 8199.5,1113.81 8141.92,1101.62C8071.32,1086.68 7820.89,1152.11 7801.25,1167.86Z"/>
                            </g>
                            <g transform="matrix(0.0720881,0,0,0.163689,2514.05,739.498)">
                                <path d="M1585.23,2103.58C1489.72,2250.87 1671.3,1290.63 1673.58,1472.49C1677.74,1805.23 1675.3,1964.67 1585.23,2103.58Z"/>
                            </g>
                        </g>
                        <g id="Naomi" transform="matrix(0.191531,0,0,0.191531,4967.56,1004.31)">
                            <g transform="matrix(1,0,0,1,-39.7631,22.4948)">
                                <path d="M630.606,759.54C515.894,935.182 373.27,1026.29 183.01,973.115C273.785,751.313 425.977,687.838 630.606,759.54Z" style="fill:white;"/>
                            </g>
                            <g transform="matrix(-0.969246,0.246093,0.246093,0.969246,1805.09,-51.1751)">
                                <path d="M630.606,759.54C515.894,935.182 373.27,1026.29 183.01,973.115C273.785,751.313 425.977,687.838 630.606,759.54Z"/>
                            </g>
                            <path d="M573.502,370.646C553.034,378.441 538.064,526.489 556.532,576.198C579.053,636.811 651.734,705.362 651.734,705.362L794.76,610.961C794.76,610.961 692.775,548.471 666.479,507.91C625.011,443.947 593.97,362.852 573.502,370.646Z" style="stroke:black;stroke-width:17px;"/>
                            <g transform="matrix(-1,0,0,1,2007.21,0)">
                                <path d="M573.502,370.646C553.034,378.441 538.064,526.489 556.532,576.198C579.053,636.811 651.734,705.362 651.734,705.362L794.76,610.961C794.76,610.961 692.775,548.471 666.479,507.91C625.011,443.947 593.97,362.852 573.502,370.646Z" style="stroke:black;stroke-width:17px;"/>
                            </g>
                            <g transform="matrix(1,0,0,1,-156.86,-539.679)">
                                <path d="M1154.82,1046.22C1441.13,1046.22 1671.3,1290.63 1673.58,1472.49C1677.74,1805.23 1663.14,2019.58 1573.06,2158.49C1477.56,2305.78 1295.03,2367.48 1154.82,2367.48C1014.61,2367.48 798.202,2307.37 731.814,2158.49C668.804,2017.19 635.046,1750.99 629.823,1472.49C626.412,1290.64 868.515,1046.22 1154.82,1046.22Z" style="fill:white;"/>
                            </g>
                            <g transform="matrix(1,0,0,1,-156.86,-539.679)">
                                <path d="M1154.82,1055.08C1260.6,1055.08 1279.34,1082.29 1261.1,1125.77C1229.95,1199.99 1091.09,1321.61 1093.31,1436.27C1096.95,1624.21 645.81,1849.95 636.07,1472.49C631.378,1290.67 868.515,1055.08 1154.82,1055.08Z" style="stroke:black;stroke-width:17px;"/>
                            </g>
                            <g transform="matrix(0.873699,0,0,0.974243,-10.9109,322.108)">
                                <ellipse cx="1154.82" cy="1213.33" rx="518.753" ry="329.54" style="fill:rgb(255,221,245);"/>
                            </g>
                            <path d="M606.941,923.233C678.91,842.856 755.962,818.785 833.686,900.934" style="fill:none;stroke:white;stroke-width:17px;"/>
                            <g transform="matrix(-1,0,0,1,1942.69,0)">
                                <path d="M606.941,923.233C678.91,842.856 755.962,818.785 833.686,900.934" style="fill:none;stroke:black;stroke-width:17px;"/>
                            </g>
                            <ellipse cx="828.223" cy="1321.83" rx="33.589" ry="31.861"/>
                            <g transform="matrix(1,0,0,1,295.707,0)">
                                <ellipse cx="828.223" cy="1321.83" rx="33.589" ry="31.861"/>
                            </g>
                            <path d="M635.638,1530.63C752.315,1814.83 1258.67,1809.89 1366.72,1516.75" style="fill:none;stroke:black;stroke-width:17px;"/>
                        </g>
                    </g>
                </g>
            </g>
        </g>
    </g>
</svg>
