<?xml version="1.0" encoding="UTF-8" standalone="no"?><!DOCTYPE svg PUBLIC "-//W3C//DTD SVG 1.1//EN" "http://www.w3.org/Graphics/SVG/1.1/DTD/svg11.dtd"><svg width="100%" height="100%" viewBox="0 0 2084 2093" version="1.1" xmlns="http://www.w3.org/2000/svg" xmlns:xlink="http://www.w3.org/1999/xlink" xml:space="preserve" xmlns:serif="http://www.serif.com/" style="fill-rule:evenodd;clip-rule:evenodd;stroke-linecap:round;stroke-linejoin:round;stroke-miterlimit:1.5;"><path id="landing-fr" serif:id="landing fr" d="M0,0l0,2092.5l2083.33,0l0,-2092.5l-2083.33,0Z" style="fill:none;"/><clipPath id="_clip1"><path d="M0,0l0,2092.5l2083.33,0l0,-2092.5l-2083.33,0Z"/></clipPath><g clip-path="url(#_clip1)"><g><g><g><ellipse cx="1041.75" cy="1050.8" rx="1041.75" ry="1041.7" style="fill:#a1fdff;"/><g><path d="M1751.66,378.993l-24.107,234.617l-460.365,-314.024l484.472,79.407Z" style="fill:#c8d6d7;"/><path d="M1751.66,378.993l-5.46,53.144l-35.627,-32.967l-63.474,-37.315l104.561,17.138Z" style="fill:#fff;"/><path d="M1628.38,140.251l16.728,417.126l-411.219,-280.501l394.491,-136.625Z" style="fill:#dbe9ea;"/><path d="M1628.38,140.251l4.5,112.206l-27.212,-34.834l-43.231,9.66l-24.353,-55.76l90.296,-31.272Z" style="fill:#fff;"/><path d="M1618.47,154.654c61.156,41.491 103.948,85.286 95.499,97.738c-8.449,12.452 -64.959,-11.124 -126.115,-52.616c-61.156,-41.491 -103.948,-85.286 -95.499,-97.738c8.449,-12.452 64.959,11.124 126.115,52.616Zm-7.654,11.28c30.578,20.746 51.974,42.643 47.749,48.869c-4.224,6.226 -32.479,-5.562 -63.057,-26.307c-30.578,-20.746 -51.974,-42.644 -47.749,-48.87c4.224,-6.225 32.479,5.563 63.057,26.308Z" style="fill:#fff;"/><path d="M1628.38,140.251l1.925,48.018l-47.338,-32.291l45.413,-15.727Z" style="fill:#fff;"/></g><g><ellipse cx="1041.75" cy="1050.8" rx="815.281" ry="815.24" style="fill:#3bba5c;"/><ellipse cx="1041.75" cy="1050.8" rx="772.371" ry="772.333" style="fill:#2b802e;"/></g><g><g><path d="M1422.65,675.231c123.446,2.311 252.688,179.927 252.688,375.573c0,195.647 -70.378,397.924 -252.688,397.924c-211.045,0 -287.75,-202.28 -286.633,-397.924c1.166,-204.112 72.431,-379.583 286.633,-375.573Z" style="fill:#37c7ee;"/><path d="M1456.66,789.584c140.274,1.176 184.554,153.127 184.554,261.22c0,108.093 -27.026,282.452 -172.878,283.173c-110.293,0.545 -156.696,-175.08 -156.696,-283.173c0,-108.093 43.709,-262.07 145.02,-261.22Z" style="fill:#2b802e;"/></g><g><path d="M513.81,1414.37c-67.768,60.589 -184.773,-517.756 -3.268,-697.116c4.748,-4.692 13.213,-7.329 20.034,-0.638c48.995,48.072 118.056,223.184 143.743,281.744c53.978,123.061 109.247,172.838 134.66,213.043c2.711,-58.609 -6.659,-365.403 18.619,-517.276c10.134,-60.886 148.246,-100.949 155.05,0c11.402,169.161 1.741,580.945 -7.772,746.392c-2.949,51.288 -93.175,52.53 -116.108,43.634c-162.202,-62.918 -358.674,-568.895 -358.674,-568.895c-48.949,3.151 22.576,491.19 13.716,499.112Z" style="fill:#37c7ee;"/><g><path d="M732.173,1050.8c-68.657,0.603 -111.062,26.419 -138.332,110.169l31.27,75.096c21.432,-94.383 69.797,-129.578 146.757,-125.683l-39.695,-59.582Z" style="fill:#7d5e12;"/><path d="M766.718,1097.64c-71.661,-6.267 -129.878,27.968 -151.462,122.765l8.645,19.005c24.181,-99.544 75.76,-132.953 147.967,-129.028l-5.15,-12.742Z" style="fill:#674b06;"/><path d="M731.571,1050.8c-69.05,0.343 -113.912,22.01 -140.214,106.696l5.538,15.327c23.849,-89.32 68.158,-108.874 141.424,-112.381l-6.748,-9.642Z" style="fill:#674b06;"/></g></g></g><g><path d="M1252.49,1939.93l23.824,-5.807l-28.334,-116.225l-23.824,5.807l28.334,116.225Z" style="fill:#8f5828;"/><path d="M1326.29,1925.84c-22.467,5.477 -45.153,-8.316 -50.63,-30.782c-5.477,-22.465 8.317,-45.151 30.783,-50.627c22.467,-5.477 45.154,8.316 50.631,30.782c5.476,22.465 -8.317,45.151 -30.784,50.627Z" style="fill:#7bf977;"/><path d="M1265.3,1940.71c-22.466,5.476 -45.153,-8.317 -50.63,-30.782c-5.477,-22.466 8.317,-45.151 30.784,-50.628c22.467,-5.477 45.153,8.316 50.63,30.782c5.477,22.466 -8.317,45.151 -30.784,50.628Z" style="fill:#7bf977;"/><path d="M1208.1,1954.65c-22.467,5.477 -45.153,-8.316 -50.63,-30.782c-5.477,-22.465 8.317,-45.151 30.783,-50.627c22.467,-5.477 45.154,8.316 50.631,30.782c5.476,22.465 -8.317,45.151 -30.784,50.627Z" style="fill:#7bf977;"/><g><path d="M1326.29,1925.84c-22.467,5.477 -45.153,-8.316 -50.63,-30.782c-5.477,-22.465 8.317,-45.151 30.783,-50.627c22.467,-5.477 45.154,8.316 50.631,30.782c5.476,22.465 -8.317,45.151 -30.784,50.627Z" style="fill:#64ec60;"/><path d="M1265.3,1940.71c-22.466,5.476 -45.153,-8.317 -50.63,-30.782c-5.477,-22.466 8.317,-45.151 30.784,-50.628c22.467,-5.477 45.153,8.316 50.63,30.782c5.477,22.466 -8.317,45.151 -30.784,50.628Z" style="fill:#64ec60;"/><path d="M1208.1,1954.65c-22.467,5.477 -45.153,-8.316 -50.63,-30.782c-5.477,-22.465 8.317,-45.151 30.783,-50.627c22.467,-5.477 45.154,8.316 50.631,30.782c5.476,22.465 -8.317,45.151 -30.784,50.627Z" style="fill:#64ec60;"/></g><path d="M1295.5,1976.47c-22.466,5.477 -45.153,-8.316 -50.63,-30.782c-5.477,-22.466 8.317,-45.151 30.784,-50.628c22.467,-5.476 45.153,8.317 50.63,30.782c5.477,22.466 -8.317,45.152 -30.784,50.628Z" style="fill:#7bf977;"/><path d="M1254.8,1986.39c-22.466,5.477 -45.153,-8.316 -50.63,-30.782c-5.477,-22.466 8.317,-45.151 30.784,-50.628c22.467,-5.476 45.153,8.317 50.63,30.782c5.477,22.466 -8.317,45.151 -30.784,50.628Z" style="fill:#7bf977;"/></g><g><path d="M238.032,608.258l-11.663,21.569l105.236,56.898l11.663,-21.569l-105.236,-56.898Z" style="fill:#8f5828;"/><path d="M199.006,672.454c10.998,-20.341 36.443,-27.926 56.784,-16.928c20.342,10.998 27.927,36.441 16.929,56.782c-10.999,20.341 -36.443,27.926 -56.785,16.927c-20.342,-10.998 -27.927,-36.441 -16.928,-56.781Z" style="fill:#7bf977;"/><path d="M228.862,617.238c10.999,-20.341 36.443,-27.926 56.785,-16.928c20.342,10.999 27.927,36.442 16.928,56.782c-10.998,20.341 -36.443,27.926 -56.784,16.928c-20.342,-10.999 -27.927,-36.442 -16.929,-56.782Z" style="fill:#7bf977;"/><path d="M256.867,565.446c10.999,-20.341 36.443,-27.926 56.785,-16.927c20.342,10.998 27.927,36.441 16.928,56.781c-10.998,20.341 -36.443,27.926 -56.784,16.928c-20.342,-10.998 -27.927,-36.441 -16.929,-56.782Z" style="fill:#7bf977;"/><g><path d="M199.006,672.454c10.998,-20.341 36.443,-27.926 56.784,-16.928c20.342,10.998 27.927,36.441 16.929,56.782c-10.999,20.341 -36.443,27.926 -56.785,16.927c-20.342,-10.998 -27.927,-36.441 -16.928,-56.781Z" style="fill:#64ec60;"/><path d="M228.862,617.238c10.999,-20.341 36.443,-27.926 56.785,-16.928c20.342,10.999 27.927,36.442 16.928,56.782c-10.998,20.341 -36.443,27.926 -56.784,16.928c-20.342,-10.999 -27.927,-36.442 -16.929,-56.782Z" style="fill:#64ec60;"/><path d="M256.867,565.446c10.999,-20.341 36.443,-27.926 56.785,-16.927c20.342,10.998 27.927,36.441 16.928,56.781c-10.998,20.341 -36.443,27.926 -56.784,16.928c-20.342,-10.998 -27.927,-36.441 -16.929,-56.782Z" style="fill:#64ec60;"/></g><path d="M182.078,615.672c10.998,-20.341 36.443,-27.926 56.784,-16.928c20.342,10.999 27.927,36.442 16.928,56.782c-10.998,20.341 -36.443,27.926 -56.784,16.928c-20.342,-10.998 -27.927,-36.442 -16.928,-56.782Z" style="fill:#7bf977;"/><path d="M202.006,578.817c10.998,-20.34 36.443,-27.925 56.784,-16.927c20.342,10.998 27.927,36.441 16.929,56.782c-10.999,20.34 -36.443,27.925 -56.785,16.927c-20.342,-10.998 -27.927,-36.441 -16.928,-56.782Z" style="fill:#7bf977;"/></g></g><g><ellipse cx="1041.75" cy="1050.8" rx="715.816" ry="707.995" style="fill:#2b802e;"/><g><path d="M523.472,881.048l162.647,246.094l0,-248.372c0,-16.141 3.465,-28.246 10.396,-36.316c6.932,-8.071 16.284,-12.106 28.058,-12.106c12.153,0 21.743,4.035 28.769,12.106c7.026,8.07 10.539,20.175 10.539,36.316l0,328.409c0,36.649 -15.191,54.973 -45.575,54.973c-7.596,0 -14.432,-1.092 -20.509,-3.276c-6.076,-2.184 -11.773,-5.649 -17.09,-10.396c-5.318,-4.747 -10.255,-10.302 -14.812,-16.663c-4.558,-6.361 -9.115,-12.865 -13.673,-19.511l-158.659,-243.245l0,244.669c0,15.951 -3.702,28.009 -11.108,36.174c-7.406,8.165 -16.901,12.248 -28.485,12.248c-11.963,0 -21.553,-4.13 -28.769,-12.39c-7.216,-8.261 -10.824,-20.271 -10.824,-36.032l0,-322.143c0,-13.672 1.519,-24.401 4.557,-32.186c3.608,-8.545 9.59,-15.523 17.945,-20.935c8.356,-5.412 17.376,-8.118 27.061,-8.118c7.595,0 14.099,1.235 19.511,3.703c5.413,2.469 10.16,5.792 14.243,9.969c4.083,4.178 8.26,9.589 12.533,16.236c4.273,6.646 8.688,13.576 13.245,20.792Z" style="fill:#37c7ee;fill-rule:nonzero;"/><path d="M1040.18,830.348c43.296,0 80.468,8.783 111.516,26.347c31.049,17.565 54.548,42.535 70.5,74.911c15.951,32.375 23.927,70.4 23.927,114.074c0,32.281 -4.368,61.619 -13.103,88.013c-8.736,26.394 -21.838,49.276 -39.309,68.644c-17.47,19.369 -38.929,34.18 -64.375,44.434c-25.446,10.254 -54.595,15.381 -87.447,15.381c-32.662,0 -61.906,-5.27 -87.732,-15.808c-25.826,-10.539 -47.38,-25.398 -64.66,-44.576c-17.281,-19.179 -30.336,-42.25 -39.166,-69.214c-8.831,-26.964 -13.246,-56.112 -13.246,-87.443c0,-32.091 4.605,-61.524 13.815,-88.298c9.21,-26.774 22.551,-49.56 40.021,-68.359c17.471,-18.799 38.739,-33.183 63.805,-43.152c25.067,-9.969 53.551,-14.954 85.454,-14.954Zm120.204,214.763c0,-30.572 -4.937,-57.061 -14.812,-79.468c-9.874,-22.407 -23.974,-39.354 -42.299,-50.842c-18.325,-11.489 -39.356,-17.233 -63.093,-17.233c-16.901,0 -32.52,3.181 -46.857,9.542c-14.337,6.361 -26.681,15.618 -37.03,27.771c-10.349,12.153 -18.515,27.676 -24.497,46.57c-5.981,18.894 -8.972,40.114 -8.972,63.66c0,23.736 2.991,45.193 8.972,64.371c5.982,19.179 14.432,35.082 25.351,47.71c10.92,12.627 23.453,22.074 37.6,28.34c14.147,6.267 29.671,9.4 46.572,9.4c21.648,0 41.54,-5.412 59.675,-16.236c18.135,-10.823 32.567,-27.533 43.297,-50.13c10.729,-22.596 16.093,-50.415 16.093,-83.455Z" style="fill:#37c7ee;fill-rule:nonzero;"/><path d="M1428.71,881.048l162.646,246.094l0,-248.372c0,-16.141 3.466,-28.246 10.397,-36.316c6.932,-8.071 16.284,-12.106 28.058,-12.106c12.153,0 21.743,4.035 28.769,12.106c7.026,8.07 10.539,20.175 10.539,36.316l0,328.409c0,36.649 -15.192,54.973 -45.575,54.973c-7.596,0 -14.432,-1.092 -20.509,-3.276c-6.077,-2.184 -11.773,-5.649 -17.091,-10.396c-5.317,-4.747 -10.254,-10.302 -14.812,-16.663c-4.557,-6.361 -9.115,-12.865 -13.672,-19.511l-158.659,-243.245l0,244.669c0,15.951 -3.703,28.009 -11.109,36.174c-7.406,8.165 -16.9,12.248 -28.484,12.248c-11.964,0 -21.553,-4.13 -28.769,-12.39c-7.216,-8.261 -10.825,-20.271 -10.825,-36.032l0,-322.143c0,-13.672 1.52,-24.401 4.558,-32.186c3.608,-8.545 9.59,-15.523 17.945,-20.935c8.356,-5.412 17.376,-8.118 27.06,-8.118c7.596,0 14.1,1.235 19.512,3.703c5.412,2.469 10.16,5.792 14.243,9.969c4.082,4.178 8.26,9.589 12.533,16.236c4.272,6.646 8.688,13.576 13.245,20.792Z" style="fill:#37c7ee;fill-rule:nonzero;"/><g><path d="M639.737,956.499c-68.657,0.603 -111.062,26.419 -138.332,110.169l31.27,75.096c21.432,-94.383 69.798,-129.578 146.757,-125.683l-39.695,-59.582Z" style="fill:#7d5e12;"/><path d="M674.282,1003.34c-71.661,-6.267 -129.878,27.968 -151.462,122.765l8.645,19.005c24.181,-99.545 75.76,-132.953 147.967,-129.028l-5.15,-12.742Z" style="fill:#674b06;"/><path d="M639.135,956.499c-69.05,0.343 -113.912,22.01 -140.214,106.696l5.538,15.326c23.849,-89.32 68.159,-108.873 141.424,-112.38l-6.748,-9.642Z" style="fill:#674b06;"/></g></g></g></g><g id="Naomi-Side" serif:id="Naomi Side"><g><g><g><path d="M1161.59,167.593c0,0 17.846,80.083 15.296,96.1c-2.422,15.22 -28.17,15.22 -30.593,0c-2.549,-16.017 15.297,-96.1 15.297,-96.1Z" style="fill:#fff;"/><path d="M1155.74,261.831c7.964,3.193 21.394,-2.629 21.394,2.857c0,5.486 -6.966,9.939 -15.546,9.939c-8.58,0 -15.546,-4.453 -15.546,-9.939c0,-5.486 2.189,-5.868 9.698,-2.857Z"/></g><g><path d="M1130.5,154.681c0,0 17.846,80.083 15.297,96.099c-2.423,15.221 -28.171,15.221 -30.594,0c-2.549,-16.016 15.297,-96.099 15.297,-96.099Z" style="fill:#fff;"/><path d="M1124.65,248.918c7.963,3.193 21.393,-2.629 21.393,2.857c0,5.486 -6.966,9.94 -15.546,9.94c-8.58,0 -15.546,-4.454 -15.546,-9.94c0,-5.486 2.19,-5.868 9.699,-2.857Z"/></g><g><path d="M980.253,167.593c0,0 17.846,80.083 15.297,96.1c-2.423,15.22 -28.171,15.22 -30.594,0c-2.549,-16.017 15.297,-96.1 15.297,-96.1Z" style="fill:#fff;"/><path d="M974.406,261.831c7.963,3.193 21.393,-2.629 21.393,2.857c0,5.486 -6.966,9.939 -15.546,9.939c-8.58,0 -15.546,-4.453 -15.546,-9.939c0,-5.486 2.19,-5.868 9.699,-2.857Z"/></g><g><path d="M949.161,154.681c0,0 17.846,80.083 15.297,96.099c-2.423,15.221 -28.171,15.221 -30.593,0c-2.55,-16.016 15.296,-96.099 15.296,-96.099Z" style="fill:#fff;"/><path d="M943.314,248.918c7.964,3.193 21.393,-2.629 21.393,2.857c0,5.486 -6.966,9.94 -15.546,9.94c-8.58,0 -15.546,-4.454 -15.546,-9.94c0,-5.486 2.19,-5.868 9.699,-2.857Z"/></g></g><path d="M1175.58,89.082c0,0 7.744,63.426 50.398,65.349" style="fill:none;stroke:#000;stroke-width:6.27px;"/><ellipse cx="1054.97" cy="120.846" rx="132.646" ry="86.526" style="fill:#fff;"/><path d="M1018.87,91.931c-3.372,-4.168 -19.462,-6.753 -23.295,0c-4.566,8.042 -7.47,44.085 -4.098,48.253c3.371,4.168 19.764,-15.204 24.329,-23.246c4.146,-7.304 6.436,-20.839 3.064,-25.007Z"/><path d="M1043.97,120.616c-9.101,2.062 -24.006,10.963 -24.977,19.513c-0.971,8.55 12.239,28.651 19.152,31.787c6.913,3.135 16.937,-6.262 22.326,-12.974c5.909,-7.36 15.879,-24.799 13.129,-31.186c-2.75,-6.388 -20.529,-9.203 -29.63,-7.14Z"/><path d="M1059.19,99.059c-4.577,3.669 44.202,0.385 51.915,6.583c7.712,6.198 -13.436,28.221 -5.64,30.605c7.796,2.385 46.899,-7.528 52.416,-16.298c5.516,-8.771 -5.9,-33.484 -19.317,-36.323c-16.448,-3.482 -74.798,11.763 -79.374,15.433Z"/><path d="M973.377,116.71c-8.779,13.538 7.912,-74.725 8.121,-58.009c0.383,30.585 0.159,45.241 -8.121,58.009Z"/></g><g id="Naomi"><path d="M897.469,45.871c-10.238,15.675 -22.967,23.806 -39.949,19.061c8.102,-19.796 21.686,-25.461 39.949,-19.061Z" style="fill:#fff;"/><path d="M967.975,51.061c13.781,12.674 28.12,17.423 43.411,8.644c-12.724,-17.193 -27.284,-19.341 -43.411,-8.644Z"/><path d="M895.922,9.155c-1.827,0.696 -3.163,13.909 -1.515,18.345c2.01,5.41 8.497,11.528 8.497,11.528l12.765,-8.425c0,0 -9.102,-5.578 -11.449,-9.198c-3.701,-5.708 -6.471,-12.946 -8.298,-12.25Z" style="stroke:#000;stroke-width:1.52px;"/><path d="M972.697,9.155c1.827,0.696 3.163,13.909 1.515,18.345c-2.01,5.41 -8.497,11.528 -8.497,11.528l-12.766,-8.425c0,0 9.103,-5.578 11.45,-9.198c3.701,-5.708 6.471,-12.946 8.298,-12.25Z" style="stroke:#000;stroke-width:1.52px;"/><path d="M933.806,21.283c25.553,0 46.096,21.813 46.3,38.044c0.372,29.696 -0.931,48.827 -8.971,61.224c-8.525,13.145 -24.815,18.652 -37.329,18.652c-12.514,0 -31.829,-5.365 -37.755,-18.652c-5.623,-12.611 -8.636,-36.369 -9.103,-61.224c-0.304,-16.229 21.304,-38.044 46.858,-38.044Z" style="fill:#fff;"/><path d="M933.806,22.074c9.441,0 11.113,2.428 9.485,6.309c-2.779,6.624 -15.174,17.478 -14.975,27.711c0.325,16.774 -39.941,36.92 -40.81,3.233c-0.419,-16.227 20.746,-37.253 46.3,-37.253Z" style="stroke:#000;stroke-width:1.52px;"/><ellipse cx="933.814" cy="110.321" rx="40.452" ry="28.653" style="fill:#ffddf5;"/><path d="M898.906,58.472c6.424,-7.173 13.301,-9.322 20.238,-1.99" style="fill:none;stroke:#fff;stroke-width:1.52px;"/><path d="M963.954,58.472c-6.423,-7.173 -13.3,-9.322 -20.238,-1.99" style="fill:none;stroke:#000;stroke-width:1.52px;"/><ellipse cx="918.656" cy="94.046" rx="2.998" ry="2.843"/><ellipse cx="945.049" cy="94.046" rx="2.998" ry="2.843"/><path d="M901.467,112.681c10.414,25.364 55.608,24.923 65.251,-1.238" style="fill:none;stroke:#000;stroke-width:1.52px;"/></g></g></g></g></svg>